<mxfile host="Electron" modified="2023-05-28T23:48:49.951Z" agent="Mozilla/5.0 (Windows NT 10.0; Win64; x64) AppleWebKit/537.36 (KHTML, like Gecko) draw.io/21.2.8 Chrome/112.0.5615.165 Electron/24.2.0 Safari/537.36" etag="Gm0ntXVSQgXTCHGAh3bm" version="21.2.8" type="device">
  <diagram name="Page-1" id="C1OjCd_FFCyyKHFCQd7Z">
    <mxGraphModel dx="1075" dy="845" grid="1" gridSize="10" guides="1" tooltips="1" connect="1" arrows="1" fold="1" page="1" pageScale="1" pageWidth="850" pageHeight="1100" math="0" shadow="0">
      <root>
        <mxCell id="0" />
        <mxCell id="1" parent="0" />
        <mxCell id="J87Ft67nQkZ3W82yUrMw-10" style="edgeStyle=orthogonalEdgeStyle;rounded=0;orthogonalLoop=1;jettySize=auto;html=1;entryX=0;entryY=0.25;entryDx=0;entryDy=0;" edge="1" parent="1" source="J87Ft67nQkZ3W82yUrMw-1" target="J87Ft67nQkZ3W82yUrMw-2">
          <mxGeometry relative="1" as="geometry" />
        </mxCell>
        <mxCell id="J87Ft67nQkZ3W82yUrMw-1" value="" style="sketch=0;outlineConnect=0;fontColor=#232F3E;gradientColor=none;fillColor=#232F3D;strokeColor=none;dashed=0;verticalLabelPosition=bottom;verticalAlign=top;align=center;html=1;fontSize=12;fontStyle=0;aspect=fixed;pointerEvents=1;shape=mxgraph.aws4.external_sdk;" vertex="1" parent="1">
          <mxGeometry x="289" y="161" width="68" height="78" as="geometry" />
        </mxCell>
        <mxCell id="J87Ft67nQkZ3W82yUrMw-24" style="edgeStyle=orthogonalEdgeStyle;rounded=0;orthogonalLoop=1;jettySize=auto;html=1;" edge="1" parent="1" source="J87Ft67nQkZ3W82yUrMw-2" target="J87Ft67nQkZ3W82yUrMw-22">
          <mxGeometry relative="1" as="geometry" />
        </mxCell>
        <mxCell id="J87Ft67nQkZ3W82yUrMw-2" value="" style="whiteSpace=wrap;html=1;" vertex="1" parent="1">
          <mxGeometry x="570" y="80" width="200" height="480" as="geometry" />
        </mxCell>
        <mxCell id="J87Ft67nQkZ3W82yUrMw-11" style="edgeStyle=orthogonalEdgeStyle;rounded=0;orthogonalLoop=1;jettySize=auto;html=1;entryX=0;entryY=0.75;entryDx=0;entryDy=0;" edge="1" parent="1" source="J87Ft67nQkZ3W82yUrMw-3" target="J87Ft67nQkZ3W82yUrMw-2">
          <mxGeometry relative="1" as="geometry" />
        </mxCell>
        <mxCell id="J87Ft67nQkZ3W82yUrMw-3" value="" style="sketch=0;outlineConnect=0;fontColor=#232F3E;gradientColor=none;fillColor=#232F3D;strokeColor=none;dashed=0;verticalLabelPosition=bottom;verticalAlign=top;align=center;html=1;fontSize=12;fontStyle=0;aspect=fixed;pointerEvents=1;shape=mxgraph.aws4.external_sdk;" vertex="1" parent="1">
          <mxGeometry x="289" y="401" width="68" height="78" as="geometry" />
        </mxCell>
        <mxCell id="J87Ft67nQkZ3W82yUrMw-4" value="KMS" style="sketch=0;points=[[0,0,0],[0.25,0,0],[0.5,0,0],[0.75,0,0],[1,0,0],[0,1,0],[0.25,1,0],[0.5,1,0],[0.75,1,0],[1,1,0],[0,0.25,0],[0,0.5,0],[0,0.75,0],[1,0.25,0],[1,0.5,0],[1,0.75,0]];outlineConnect=0;fontColor=#232F3E;gradientColor=#F54749;gradientDirection=north;fillColor=#C7131F;strokeColor=#ffffff;dashed=0;verticalLabelPosition=bottom;verticalAlign=top;align=center;html=1;fontSize=12;fontStyle=0;aspect=fixed;shape=mxgraph.aws4.resourceIcon;resIcon=mxgraph.aws4.key_management_service;" vertex="1" parent="1">
          <mxGeometry x="631" y="121" width="78" height="78" as="geometry" />
        </mxCell>
        <mxCell id="J87Ft67nQkZ3W82yUrMw-14" style="edgeStyle=orthogonalEdgeStyle;rounded=0;orthogonalLoop=1;jettySize=auto;html=1;entryX=1;entryY=0.25;entryDx=0;entryDy=0;startArrow=classic;startFill=1;" edge="1" parent="1" source="J87Ft67nQkZ3W82yUrMw-5" target="J87Ft67nQkZ3W82yUrMw-2">
          <mxGeometry relative="1" as="geometry" />
        </mxCell>
        <mxCell id="J87Ft67nQkZ3W82yUrMw-5" value="" style="sketch=0;points=[[0,0,0],[0.25,0,0],[0.5,0,0],[0.75,0,0],[1,0,0],[0,1,0],[0.25,1,0],[0.5,1,0],[0.75,1,0],[1,1,0],[0,0.25,0],[0,0.5,0],[0,0.75,0],[1,0.25,0],[1,0.5,0],[1,0.75,0]];outlineConnect=0;fontColor=#232F3E;gradientColor=#F54749;gradientDirection=north;fillColor=#C7131F;strokeColor=#ffffff;dashed=0;verticalLabelPosition=bottom;verticalAlign=top;align=center;html=1;fontSize=12;fontStyle=0;aspect=fixed;shape=mxgraph.aws4.resourceIcon;resIcon=mxgraph.aws4.identity_and_access_management;" vertex="1" parent="1">
          <mxGeometry x="1010" y="161" width="78" height="78" as="geometry" />
        </mxCell>
        <mxCell id="J87Ft67nQkZ3W82yUrMw-6" value="Perform &lt;b&gt;encryption&lt;/b&gt;&lt;br&gt;CMK - Customer Master Key" style="sketch=0;outlineConnect=0;fontColor=#232F3E;gradientColor=none;fillColor=#BF0816;strokeColor=none;dashed=0;verticalLabelPosition=bottom;verticalAlign=top;align=center;html=1;fontSize=12;fontStyle=0;aspect=fixed;pointerEvents=1;shape=mxgraph.aws4.addon;" vertex="1" parent="1">
          <mxGeometry x="631" y="271" width="78" height="40" as="geometry" />
        </mxCell>
        <mxCell id="J87Ft67nQkZ3W82yUrMw-7" value="Perform &lt;b&gt;decryption&lt;/b&gt;&lt;br&gt;CMK - Customer Master Key" style="sketch=0;outlineConnect=0;fontColor=#232F3E;gradientColor=none;fillColor=#BF0816;strokeColor=none;dashed=0;verticalLabelPosition=bottom;verticalAlign=top;align=center;html=1;fontSize=12;fontStyle=0;aspect=fixed;pointerEvents=1;shape=mxgraph.aws4.addon;" vertex="1" parent="1">
          <mxGeometry x="631" y="421" width="78" height="40" as="geometry" />
        </mxCell>
        <mxCell id="J87Ft67nQkZ3W82yUrMw-12" value="&lt;b&gt;4. Decrypt&lt;/b&gt; API" style="text;html=1;align=center;verticalAlign=middle;resizable=0;points=[];autosize=1;strokeColor=none;fillColor=none;" vertex="1" parent="1">
          <mxGeometry x="401" y="408" width="100" height="30" as="geometry" />
        </mxCell>
        <mxCell id="J87Ft67nQkZ3W82yUrMw-13" value="&lt;b&gt;1. Encrypt&amp;nbsp;&lt;/b&gt;API" style="text;html=1;align=center;verticalAlign=middle;resizable=0;points=[];autosize=1;strokeColor=none;fillColor=none;" vertex="1" parent="1">
          <mxGeometry x="401" y="168" width="100" height="30" as="geometry" />
        </mxCell>
        <mxCell id="J87Ft67nQkZ3W82yUrMw-15" value="" style="sketch=0;outlineConnect=0;fontColor=#232F3E;gradientColor=none;fillColor=#BF0816;strokeColor=none;dashed=0;verticalLabelPosition=bottom;verticalAlign=top;align=center;html=1;fontSize=12;fontStyle=0;aspect=fixed;pointerEvents=1;shape=mxgraph.aws4.permissions;" vertex="1" parent="1">
          <mxGeometry x="870" y="110" width="62" height="78" as="geometry" />
        </mxCell>
        <mxCell id="J87Ft67nQkZ3W82yUrMw-16" value="2. Check IAM permissions" style="text;html=1;align=center;verticalAlign=middle;resizable=0;points=[];autosize=1;strokeColor=none;fillColor=none;" vertex="1" parent="1">
          <mxGeometry x="821" y="206" width="160" height="30" as="geometry" />
        </mxCell>
        <mxCell id="J87Ft67nQkZ3W82yUrMw-20" style="edgeStyle=orthogonalEdgeStyle;rounded=0;orthogonalLoop=1;jettySize=auto;html=1;entryX=1;entryY=0.75;entryDx=0;entryDy=0;startArrow=classic;startFill=1;" edge="1" parent="1" source="J87Ft67nQkZ3W82yUrMw-17" target="J87Ft67nQkZ3W82yUrMw-2">
          <mxGeometry relative="1" as="geometry" />
        </mxCell>
        <mxCell id="J87Ft67nQkZ3W82yUrMw-17" value="" style="sketch=0;points=[[0,0,0],[0.25,0,0],[0.5,0,0],[0.75,0,0],[1,0,0],[0,1,0],[0.25,1,0],[0.5,1,0],[0.75,1,0],[1,1,0],[0,0.25,0],[0,0.5,0],[0,0.75,0],[1,0.25,0],[1,0.5,0],[1,0.75,0]];outlineConnect=0;fontColor=#232F3E;gradientColor=#F54749;gradientDirection=north;fillColor=#C7131F;strokeColor=#ffffff;dashed=0;verticalLabelPosition=bottom;verticalAlign=top;align=center;html=1;fontSize=12;fontStyle=0;aspect=fixed;shape=mxgraph.aws4.resourceIcon;resIcon=mxgraph.aws4.identity_and_access_management;" vertex="1" parent="1">
          <mxGeometry x="1010" y="401" width="78" height="78" as="geometry" />
        </mxCell>
        <mxCell id="J87Ft67nQkZ3W82yUrMw-18" value="" style="sketch=0;outlineConnect=0;fontColor=#232F3E;gradientColor=none;fillColor=#BF0816;strokeColor=none;dashed=0;verticalLabelPosition=bottom;verticalAlign=top;align=center;html=1;fontSize=12;fontStyle=0;aspect=fixed;pointerEvents=1;shape=mxgraph.aws4.permissions;" vertex="1" parent="1">
          <mxGeometry x="870" y="350" width="62" height="78" as="geometry" />
        </mxCell>
        <mxCell id="J87Ft67nQkZ3W82yUrMw-19" value="5 .Check IAM permissions" style="text;html=1;align=center;verticalAlign=middle;resizable=0;points=[];autosize=1;strokeColor=none;fillColor=none;" vertex="1" parent="1">
          <mxGeometry x="821" y="446" width="160" height="30" as="geometry" />
        </mxCell>
        <mxCell id="J87Ft67nQkZ3W82yUrMw-21" value="File/Secret/Data &amp;lt; 4KB" style="whiteSpace=wrap;html=1;fillColor=#fad7ac;strokeColor=#b46504;" vertex="1" parent="1">
          <mxGeometry x="401" y="211" width="120" height="60" as="geometry" />
        </mxCell>
        <mxCell id="J87Ft67nQkZ3W82yUrMw-22" value="Encrypted Data" style="whiteSpace=wrap;html=1;" vertex="1" parent="1">
          <mxGeometry x="245.5" y="297" width="155" height="45" as="geometry" />
        </mxCell>
        <mxCell id="J87Ft67nQkZ3W82yUrMw-23" value="" style="sketch=0;outlineConnect=0;fontColor=#232F3E;gradientColor=none;fillColor=#BF0816;strokeColor=none;dashed=0;verticalLabelPosition=bottom;verticalAlign=top;align=center;html=1;fontSize=12;fontStyle=0;aspect=fixed;pointerEvents=1;shape=mxgraph.aws4.encrypted_data;" vertex="1" parent="1">
          <mxGeometry x="251.63" y="304.5" width="23.84" height="30" as="geometry" />
        </mxCell>
        <mxCell id="J87Ft67nQkZ3W82yUrMw-25" value="3. Send encrypted secret" style="text;html=1;align=center;verticalAlign=middle;resizable=0;points=[];autosize=1;strokeColor=none;fillColor=none;" vertex="1" parent="1">
          <mxGeometry x="410" y="290" width="160" height="30" as="geometry" />
        </mxCell>
        <mxCell id="J87Ft67nQkZ3W82yUrMw-31" style="edgeStyle=orthogonalEdgeStyle;rounded=0;orthogonalLoop=1;jettySize=auto;html=1;exitX=-0.005;exitY=0.917;exitDx=0;exitDy=0;exitPerimeter=0;" edge="1" parent="1" source="J87Ft67nQkZ3W82yUrMw-2" target="J87Ft67nQkZ3W82yUrMw-26">
          <mxGeometry relative="1" as="geometry" />
        </mxCell>
        <mxCell id="J87Ft67nQkZ3W82yUrMw-26" value="Decrypted Data" style="whiteSpace=wrap;html=1;" vertex="1" parent="1">
          <mxGeometry x="245.5" y="497" width="155" height="45" as="geometry" />
        </mxCell>
        <mxCell id="J87Ft67nQkZ3W82yUrMw-27" value="" style="sketch=0;outlineConnect=0;fontColor=#232F3E;gradientColor=none;fillColor=#BF0816;strokeColor=none;dashed=0;verticalLabelPosition=bottom;verticalAlign=top;align=center;html=1;fontSize=12;fontStyle=0;aspect=fixed;pointerEvents=1;shape=mxgraph.aws4.encrypted_data;" vertex="1" parent="1">
          <mxGeometry x="251.63" y="504.5" width="23.84" height="30" as="geometry" />
        </mxCell>
        <mxCell id="J87Ft67nQkZ3W82yUrMw-28" value="6. Send decrypted secret" style="text;html=1;align=center;verticalAlign=middle;resizable=0;points=[];autosize=1;strokeColor=none;fillColor=none;" vertex="1" parent="1">
          <mxGeometry x="410" y="490" width="160" height="30" as="geometry" />
        </mxCell>
      </root>
    </mxGraphModel>
  </diagram>
</mxfile>
